<svg width="20" height="20" viewBox="0 0 20 20" fill="none" xmlns="http://www.w3.org/2000/svg">
<path d="M15.8333 3.3335H4.16666C3.50362 3.3335 2.86773 3.59689 2.39889 4.06573C1.93005 4.53457 1.66666 5.17045 1.66666 5.8335V14.1668C1.66666 14.8299 1.93005 15.4658 2.39889 15.9346C2.86773 16.4034 3.50362 16.6668 4.16666 16.6668H15.8333C16.4964 16.6668 17.1322 16.4034 17.6011 15.9346C18.0699 15.4658 18.3333 14.8299 18.3333 14.1668V5.8335C18.3333 5.17045 18.0699 4.53457 17.6011 4.06573C17.1322 3.59689 16.4964 3.3335 15.8333 3.3335ZM15.8333 5.00016L10.4167 8.72516C10.29 8.7983 10.1463 8.83681 9.99999 8.83681C9.85371 8.83681 9.71001 8.7983 9.58332 8.72516L4.16666 5.00016H15.8333Z" fill="white"/>
</svg>
