<svg xmlns="http://www.w3.org/2000/svg" width="50" height="50">
  <defs>
    <clipPath id="a">
      <path fill="#fff" d="M0 0h25v25H0z" />
    </clipPath>
  </defs>
  <path fill="#cc5803" d="M30 0h20v20a30 30 0 0 1-30 30H0V30A30 30 0 0 1 30 0z" />
  <g clip-path="url(#a)" transform="translate(12.6 12.4)">
    <path fill="#fff" d="M12.452 7.31a5.239 5.239 0 1 0 5.237 5.239 5.245 5.245 0 0 0-5.237-5.239zm0 8.981a3.742 3.742 0 1 1 3.737-3.742 3.746 3.746 0 0 1-3.737 3.739z" />
    <path fill="#fff" d="M24.762 10.342l-3.133-1.01a9.477 9.477 0 0 0-.416-1l1.429-2.857a.748.748 0 0 0-.14-.864l-2.113-2.117a.749.749 0 0 0-.864-.14l-2.856 1.429a9.472 9.472 0 0 0-1-.416L14.658.238a.747.747 0 0 0-.71-.512h-2.993a.748.748 0 0 0-.71.512l-1.01 3.129a9.477 9.477 0 0 0-1 .416L5.378 2.354a.744.744 0 0 0-.864.14L2.397 4.611a.748.748 0 0 0-.14.864l1.429 2.856a9.473 9.473 0 0 0-.416 1L.241 10.342a.748.748 0 0 0-.512.71v2.994a.748.748 0 0 0 .512.71l3.029 1.01a9.477 9.477 0 0 0 .416 1l-1.429 2.86a.748.748 0 0 0 .14.864l2.117 2.117a.745.745 0 0 0 .864.14l2.857-1.429a9.472 9.472 0 0 0 1 .416l1.01 3.029a.748.748 0 0 0 .71.512h2.994a.748.748 0 0 0 .71-.512l1.009-3.037a9.477 9.477 0 0 0 1-.416l2.861 1.433a.75.75 0 0 0 .864-.14l2.117-2.117a.748.748 0 0 0 .14-.864l-1.429-2.857a9.472 9.472 0 0 0 .416-1l3.129-1.01a.747.747 0 0 0 .512-.71v-2.993a.748.748 0 0 0-.516-.71zm-12.31 8.942a6.735 6.735 0 1 1 6.735-6.735 6.743 6.743 0 0 1-6.735 6.735z" />
    <path fill="#fff" d="M12.452 10.303a2.245 2.245 0 1 0 2.244 2.248 2.248 2.248 0 0 0-2.244-2.248z" />
  </g>
</svg>
