<svg xmlns="http://www.w3.org/2000/svg" xmlns:xlink="http://www.w3.org/1999/xlink" width="50" height="50" viewBox="0 0 50 50">
  <defs>
    <clipPath id="clip-path">
      <rect id="Прямоугольник_2" data-name="Прямоугольник 2" width="25" height="25" fill="#fff"/>
    </clipPath>
  </defs>
  <g id="logo" transform="translate(-172 -33)">
    <path id="Прямоугольник_1" data-name="Прямоугольник 1" d="M30,0H50a0,0,0,0,1,0,0V20A30,30,0,0,1,20,50H0a0,0,0,0,1,0,0V30A30,30,0,0,1,30,0Z" transform="translate(172 33)" fill="#cc5803"/>
    <g id="Группа_масок_1" data-name="Группа масок 1" transform="translate(184.6 45.4)" clip-path="url(#clip-path)">
      <g id="gear" transform="translate(-0.271 -0.274)">
        <g id="Сгруппировать_2" data-name="Сгруппировать 2" transform="translate(7.484 7.584)">
          <g id="Сгруппировать_1" data-name="Сгруппировать 1">
            <path id="Контур_1" data-name="Контур 1" d="M12.563,7.422A5.239,5.239,0,1,0,17.8,12.661,5.245,5.245,0,0,0,12.563,7.422Zm0,8.981A3.742,3.742,0,1,1,16.3,12.661,3.746,3.746,0,0,1,12.563,16.4Z" transform="translate(-7.324 -7.422)" fill="#fff"/>
          </g>
        </g>
        <g id="Сгруппировать_4" data-name="Сгруппировать 4">
          <g id="Сгруппировать_3" data-name="Сгруппировать 3">
            <path id="Контур_2" data-name="Контур 2" d="M25.033,10.616,21.9,9.606a9.477,9.477,0,0,0-.416-1l1.429-2.857a.748.748,0,0,0-.14-.864L20.66,2.768a.749.749,0,0,0-.864-.14L16.94,4.057a9.472,9.472,0,0,0-1-.416L14.929.512A.747.747,0,0,0,14.219,0H11.226a.748.748,0,0,0-.71.512L9.506,3.641a9.477,9.477,0,0,0-1,.416L5.649,2.628a.744.744,0,0,0-.864.14L2.668,4.885a.748.748,0,0,0-.14.864L3.957,8.605a9.473,9.473,0,0,0-.416,1L.512,10.616a.748.748,0,0,0-.512.71v2.994a.748.748,0,0,0,.512.71l3.029,1.01a9.477,9.477,0,0,0,.416,1L2.528,19.9a.748.748,0,0,0,.14.864l2.117,2.117a.745.745,0,0,0,.864.14l2.857-1.429a9.472,9.472,0,0,0,1,.416l1.01,3.029a.748.748,0,0,0,.71.512h2.994a.748.748,0,0,0,.71-.512L15.939,22a9.477,9.477,0,0,0,1-.416L19.8,23.017a.75.75,0,0,0,.864-.14l2.117-2.117a.748.748,0,0,0,.14-.864l-1.429-2.857a9.472,9.472,0,0,0,.416-1l3.129-1.01a.747.747,0,0,0,.512-.71V11.326A.748.748,0,0,0,25.033,10.616ZM12.723,19.558a6.735,6.735,0,1,1,6.735-6.735A6.743,6.743,0,0,1,12.723,19.558Z" fill="#fff"/>
          </g>
        </g>
        <g id="Сгруппировать_6" data-name="Сгруппировать 6" transform="translate(10.477 10.577)">
          <g id="Сгруппировать_5" data-name="Сгруппировать 5">
            <path id="Контур_3" data-name="Контур 3" d="M12.5,10.352A2.245,2.245,0,1,0,14.744,12.6,2.248,2.248,0,0,0,12.5,10.352Z" transform="translate(-10.254 -10.352)" fill="#fff"/>
          </g>
        </g>
      </g>
    </g>
  </g>
</svg>
