<svg width="20" height="20" viewBox="0 0 20 20" fill="none" xmlns="http://www.w3.org/2000/svg">
<path d="M12.7062 13.425L14.1062 12.025C14.2948 11.8388 14.5334 11.7113 14.793 11.6581C15.0526 11.6048 15.3221 11.6281 15.5687 11.725L17.275 12.4063C17.5242 12.5074 17.738 12.6801 17.8892 12.9026C18.0405 13.125 18.1225 13.3873 18.125 13.6563V16.7813C18.1235 16.9643 18.0851 17.1451 18.0119 17.3128C17.9387 17.4805 17.8324 17.6317 17.6993 17.7573C17.5661 17.8828 17.409 17.9801 17.2372 18.0433C17.0655 18.1065 16.8827 18.1343 16.7 18.125C4.74374 17.3813 2.33124 7.25628 1.87499 3.38128C1.85381 3.19099 1.87316 2.99837 1.93177 2.81609C1.99038 2.63382 2.08692 2.46602 2.21503 2.32374C2.34315 2.18145 2.49994 2.0679 2.67509 1.99057C2.85024 1.91323 3.03978 1.87385 3.23124 1.87503H6.24999C6.51937 1.87582 6.78235 1.95719 7.00511 2.10867C7.22787 2.26015 7.40022 2.4748 7.49999 2.72503L8.18124 4.43128C8.2814 4.67694 8.30695 4.94668 8.25471 5.20678C8.20247 5.46689 8.07474 5.70584 7.88749 5.89378L6.48749 7.29378C6.48749 7.29378 7.29374 12.75 12.7062 13.425Z" fill="white"/>
</svg>
