<svg width="20" height="20" viewBox="0 0 20 20" fill="none" xmlns="http://www.w3.org/2000/svg">
<path d="M10 1.6665C5.405 1.6665 1.66667 5.40484 1.66667 9.99984V13.4523C1.66667 14.3057 2.41417 14.9998 3.33334 14.9998H4.16667C4.38769 14.9998 4.59965 14.912 4.75593 14.7558C4.91221 14.5995 5.00001 14.3875 5.00001 14.1665V9.88067C5.00001 9.65966 4.91221 9.44769 4.75593 9.29141C4.59965 9.13513 4.38769 9.04734 4.16667 9.04734H3.41001C3.87334 5.82234 6.64834 3.33317 10 3.33317C13.3517 3.33317 16.1267 5.82234 16.59 9.04734H15.8333C15.6123 9.04734 15.4004 9.13513 15.2441 9.29141C15.0878 9.44769 15 9.65966 15 9.88067V14.9998C15 15.919 14.2525 16.6665 13.3333 16.6665H11.6667V15.8332H8.33334V18.3332H13.3333C15.1717 18.3332 16.6667 16.8382 16.6667 14.9998C17.5858 14.9998 18.3333 14.3057 18.3333 13.4523V9.99984C18.3333 5.40484 14.595 1.6665 10 1.6665Z" fill="white"/>
</svg>
